<svg width="70" height="70" viewBox="0 0 70 70" fill="none" xmlns="http://www.w3.org/2000/svg">
<path d="M49.6219 49.5833L49.5781 36.712L21.7532 8.61867C20.6507 7.51617 19.1865 6.9095 17.629 6.9095C16.0715 6.9095 14.6073 7.51617 13.5048 8.61867L8.87898 13.2445C6.67398 15.4495 6.68565 19.2966 8.87023 21.4841L36.7011 49.5833H49.6219ZM13.0032 17.3687L17.6202 12.7341L22.2344 17.392L17.6115 22.0178L13.0032 17.3687ZM39.1336 43.7499L21.7123 26.1624L26.3382 21.5366L43.7536 39.1212L43.7682 43.7499H39.1336Z" fill="black"/>
<path d="M61.25 55.4167V14.5833C61.25 11.3662 58.6338 8.75 55.4167 8.75H30.135L35.9683 14.5833H55.4167V46.2058C55.4167 46.2817 55.4458 46.3604 55.4458 46.4362C55.4458 46.5325 55.4196 46.6287 55.4167 46.7279V55.4167H14.5833V35.4462L8.75 29.6129V55.4167C8.75 58.6337 11.3663 61.25 14.5833 61.25H55.4167C58.6338 61.25 61.25 58.6337 61.25 55.4167Z" fill="black"/>
</svg>
