<svg width="34" height="42" viewBox="0 0 34 42" fill="none" xmlns="http://www.w3.org/2000/svg">
<path fill-rule="evenodd" clip-rule="evenodd" d="M0.333008 6.41669C0.333008 2.96491 3.13123 0.166687 6.58301 0.166687H27.4163C30.8681 0.166687 33.6663 2.96491 33.6663 6.41669V39.75C33.6663 40.4721 33.2925 41.1426 32.6783 41.5222C32.0641 41.9018 31.2971 41.9363 30.6513 41.6134L16.9997 34.7876L3.34804 41.6134C2.70223 41.9363 1.93527 41.9018 1.32107 41.5222C0.706867 41.1426 0.333008 40.4721 0.333008 39.75V6.41669ZM6.58301 4.33335C5.43242 4.33335 4.49967 5.26609 4.49967 6.41669V36.3791L16.068 30.595C16.6545 30.3017 17.3449 30.3017 17.9314 30.595L29.4997 36.3791V6.41669C29.4997 5.26609 28.5669 4.33335 27.4163 4.33335H6.58301Z" fill="black"/>
</svg>
