<svg width="38" height="38" viewBox="0 0 38 38" fill="none" xmlns="http://www.w3.org/2000/svg">
<path fill-rule="evenodd" clip-rule="evenodd" d="M19 11C17.3431 11 16 12.3431 16 14C16 15.6569 17.3431 17 19 17C20.6569 17 22 15.6569 22 14C22 12.3431 20.6569 11 19 11ZM14 14C14 11.2386 16.2386 9 19 9C21.7614 9 24 11.2386 24 14C24 16.7614 21.7614 19 19 19C16.2386 19 14 16.7614 14 14ZM13.083 27H24.917C24.441 24.1623 21.973 22 19 22C16.027 22 13.559 24.1623 13.083 27ZM11 28C11 23.5817 14.5817 20 19 20C23.4183 20 27 23.5817 27 28C27 28.5523 26.5523 29 26 29H12C11.4477 29 11 28.5523 11 28Z" fill="black"/>
</svg>
