<svg width="27" height="27" viewBox="0 0 27 27" fill="none" xmlns="http://www.w3.org/2000/svg">
<path fill-rule="evenodd" clip-rule="evenodd" d="M1.48375 1.48302C2.18344 0.78333 3.31786 0.78333 4.01755 1.48302L13.5007 10.9661L22.9838 1.48302C23.6834 0.783331 24.8179 0.783331 25.5176 1.48302C26.2172 2.18271 26.2172 3.31713 25.5176 4.01682L16.0345 13.4999L25.5176 22.983C26.2172 23.6827 26.2172 24.8171 25.5176 25.5168C24.8179 26.2165 23.6834 26.2165 22.9838 25.5168L13.5007 16.0337L4.01755 25.5168C3.31786 26.2165 2.18344 26.2165 1.48375 25.5168C0.784062 24.8171 0.784062 23.6827 1.48375 22.983L10.9669 13.4999L1.48375 4.01682C0.784062 3.31713 0.784062 2.18271 1.48375 1.48302Z" fill="#979797"/>
</svg>
