<svg width="36" height="36" viewBox="0 0 36 36" fill="none" xmlns="http://www.w3.org/2000/svg">
<path d="M22.0971 8.8389L17.6777 13.2583L13.2583 8.8389C12.6722 8.25285 11.8773 7.92361 11.0485 7.92361C10.2197 7.92361 9.42489 8.25285 8.83883 8.8389C8.25278 9.42495 7.92354 10.2198 7.92354 11.0486C7.92354 11.8774 8.25278 12.6723 8.83883 13.2583L13.3367 17.5993L8.83883 22.0972C8.25278 22.6832 7.92354 23.4781 7.92354 24.3069C7.92354 25.1357 8.25278 25.9305 8.83883 26.5166C9.42489 27.1026 10.2197 27.4319 11.0485 27.4319C11.8773 27.4319 12.6722 27.1026 13.2583 26.5166L17.6777 21.9403L22.0971 26.5166C22.6831 27.1026 23.478 27.4319 24.3068 27.4319C25.1356 27.4319 25.9305 27.1026 26.5165 26.5166C27.1026 25.9305 27.4318 25.1357 27.4318 24.3069C27.4318 23.4781 27.1026 22.6832 26.5165 22.0972L22.0186 17.5993L26.5165 13.2583C27.1026 12.6723 27.4318 11.8774 27.4318 11.0486C27.4318 10.2198 27.1026 9.42495 26.5165 8.8389C25.9305 8.25285 25.1356 7.92361 24.3068 7.92361C23.478 7.92361 22.6831 8.25285 22.0971 8.8389Z" fill="white"/>
</svg>
