<svg width="38" height="42" viewBox="0 0 38 42" fill="none" xmlns="http://www.w3.org/2000/svg">
<path fill-rule="evenodd" clip-rule="evenodd" d="M12.7885 5.71917C13.1354 2.59568 15.7841 0.166687 19.0001 0.166687C22.2161 0.166687 24.8647 2.59569 25.2116 5.71918C30.1571 8.05084 33.5834 13.0814 33.5834 18.9167V25.4968C33.5834 26.0668 33.8098 26.6135 34.2129 27.0166L37.1399 29.9436C37.7357 30.5394 37.9139 31.4355 37.5915 32.214C37.269 32.9924 36.5094 33.5 35.6667 33.5L27.3334 33.5C27.3334 38.1024 23.6024 41.8334 19.0001 41.8334C14.3977 41.8334 10.6667 38.1024 10.6667 33.5L2.33339 33.5C1.49076 33.5 0.731105 32.9924 0.408645 32.214C0.0861848 31.4355 0.264426 30.5394 0.860255 29.9436L3.7872 27.0166C4.19028 26.6135 4.41673 26.0668 4.41673 25.4968V18.9167C4.41673 13.0814 7.84301 8.05083 12.7885 5.71917ZM14.8334 33.5C14.8334 35.8012 16.6989 37.6667 19.0001 37.6667C21.3012 37.6667 23.1667 35.8012 23.1667 33.5H14.8334ZM19.0001 4.33335C17.8495 4.33335 16.9167 5.26609 16.9167 6.41669V7.12797C16.9167 8.01092 16.3601 8.79798 15.5277 9.09222C11.479 10.5232 8.58339 14.3845 8.58339 18.9167V25.4968C8.58339 26.8911 8.12234 28.2379 7.28466 29.3334H30.7155C29.8778 28.2379 29.4167 26.8911 29.4167 25.4968V18.9167C29.4167 14.3845 26.5211 10.5232 22.4725 9.09222C21.64 8.79798 21.0834 8.01092 21.0834 7.12797V6.41669C21.0834 5.26609 20.1507 4.33335 19.0001 4.33335Z" fill="black"/>
</svg>
