<svg width="60" height="60" viewBox="0 0 60 60" fill="none" xmlns="http://www.w3.org/2000/svg">
<rect width="60" height="60" rx="30" fill="#FE9738" fill-opacity="0.9"/>
<path d="M43 25.8571H34.4286V17.2857C34.4286 16.1491 33.977 15.059 33.1733 14.2553C32.3696 13.4515 31.2795 13 30.1429 13C29.0062 13 27.9161 13.4515 27.1124 14.2553C26.3087 15.059 25.8571 16.1491 25.8571 17.2857L26.0093 25.8571H17.2857C16.1491 25.8571 15.059 26.3087 14.2553 27.1124C13.4515 27.9161 13 29.0062 13 30.1429C13 31.2795 13.4515 32.3696 14.2553 33.1733C15.059 33.977 16.1491 34.4286 17.2857 34.4286L26.0093 34.2764L25.8571 43C25.8571 44.1366 26.3087 45.2267 27.1124 46.0305C27.9161 46.8342 29.0062 47.2857 30.1429 47.2857C31.2795 47.2857 32.3696 46.8342 33.1733 46.0305C33.977 45.2267 34.4286 44.1366 34.4286 43V34.2764L43 34.4286C44.1366 34.4286 45.2267 33.977 46.0305 33.1733C46.8342 32.3696 47.2857 31.2795 47.2857 30.1429C47.2857 29.0062 46.8342 27.9161 46.0305 27.1124C45.2267 26.3087 44.1366 25.8571 43 25.8571Z" fill="white"/>
</svg>
