<svg width="53" height="50" viewBox="0 0 53 50" fill="none" xmlns="http://www.w3.org/2000/svg">
<path d="M48.8161 49.933L30.2895 32.4564C28.8191 33.5661 27.1282 34.4445 25.2167 35.0918C23.3053 35.7391 21.2713 36.0627 19.1147 36.0627C13.7724 36.0627 9.25104 34.3174 5.55062 30.8267C1.85021 27.336 0 23.0709 0 18.0313C0 12.9918 1.85021 8.72671 5.55062 5.23603C9.25104 1.74534 13.7724 0 19.1147 0C24.457 0 28.9784 1.74534 32.6788 5.23603C36.3792 8.72671 38.2294 12.9918 38.2294 18.0313C38.2294 20.0657 37.8864 21.9844 37.2002 23.7875C36.514 25.5906 35.5828 27.1857 34.4065 28.5728L52.9331 46.0493L48.8161 49.933ZM19.1147 30.5146C22.7906 30.5146 25.9152 29.3009 28.4883 26.8736C31.0614 24.4463 32.348 21.4989 32.348 18.0313C32.348 14.5638 31.0614 11.6164 28.4883 9.18905C25.9152 6.76176 22.7906 5.54811 19.1147 5.54811C15.4388 5.54811 12.3143 6.76176 9.74116 9.18905C7.16802 11.6164 5.88145 14.5638 5.88145 18.0313C5.88145 21.4989 7.16802 24.4463 9.74116 26.8736C12.3143 29.3009 15.4388 30.5146 19.1147 30.5146Z" fill="#FE9738"/>
</svg>
