<svg width="55" height="56" viewBox="0 0 55 56" fill="none" xmlns="http://www.w3.org/2000/svg">
<path d="M32.2644 3.72217C32.6283 3.72218 32.9828 3.83768 33.2768 4.05204C33.5709 4.2664 33.7893 4.56855 33.9007 4.91498L35.7913 10.7897C36.5854 11.1781 37.345 11.6147 38.0704 12.1062L44.1066 10.8069C44.4625 10.7309 44.8333 10.7698 45.1657 10.9181C45.498 11.0663 45.7748 11.3163 45.956 11.6319L50.7204 19.8784C50.9023 20.1938 50.9793 20.5589 50.9404 20.9209C50.9015 21.2829 50.7486 21.6233 50.5038 21.8928L46.3616 26.4647C46.4219 27.3413 46.4219 28.2211 46.3616 29.0978L50.5038 33.6765C50.7486 33.9461 50.9015 34.2864 50.9404 34.6484C50.9793 35.0105 50.9023 35.3755 50.7204 35.6909L45.956 43.9409C45.7743 44.2559 45.4973 44.5051 45.165 44.6527C44.8327 44.8004 44.4621 44.8388 44.1066 44.7625L38.0704 43.4631C37.3485 43.9512 36.5854 44.3912 35.7947 44.7797L33.9007 50.6544C33.7893 51.0008 33.5709 51.3029 33.2768 51.5173C32.9828 51.7317 32.6283 51.8472 32.2644 51.8472H22.7357C22.3718 51.8472 22.0173 51.7317 21.7232 51.5173C21.4292 51.3029 21.2108 51.0008 21.0994 50.6544L19.2122 44.7831C18.4203 44.3959 17.6564 43.9536 16.9263 43.4597L10.8935 44.7625C10.5376 44.8385 10.1667 44.7995 9.83439 44.6513C9.50203 44.503 9.22532 44.2531 9.0441 43.9375L4.27972 35.6909C4.09779 35.3755 4.02073 35.0105 4.05965 34.6484C4.09858 34.2864 4.25147 33.9461 4.49629 33.6765L8.63847 29.0978C8.57847 28.2234 8.57847 27.3459 8.63847 26.4715L4.49629 21.8928C4.25147 21.6233 4.09858 21.2829 4.05965 20.9209C4.02073 20.5589 4.09779 20.1938 4.27972 19.8784L9.0441 11.6284C9.22582 11.3135 9.50275 11.0642 9.83506 10.9166C10.1674 10.769 10.5379 10.7306 10.8935 10.8069L16.9263 12.1097C17.655 11.6181 18.4182 11.1747 19.2122 10.7862L21.1028 4.91498C21.2138 4.56967 21.4312 4.26831 21.7239 4.05406C22.0166 3.8398 22.3695 3.72363 22.7322 3.72217H32.261H32.2644ZM31.0063 7.15967H23.9938L22.0413 13.2337L20.7247 13.8765C20.0775 14.1933 19.4527 14.5539 18.8547 14.9559L17.6378 15.7809L11.3953 14.4334L7.8891 20.5109L12.1688 25.2478L12.0657 26.7053C12.0163 27.424 12.0163 28.1453 12.0657 28.864L12.1688 30.3215L7.88222 35.0584L11.3919 41.1359L17.6344 39.7919L18.8513 40.6134C19.4493 41.0154 20.0741 41.3761 20.7213 41.6928L22.0378 42.3356L23.9938 48.4097H31.0132L32.9725 42.3322L34.2857 41.6928C34.9322 41.3768 35.5559 41.0161 36.1522 40.6134L37.3657 39.7919L43.6116 41.1359L47.1179 35.0584L42.8347 30.3215L42.9379 28.864C42.9874 28.1442 42.9874 27.4217 42.9379 26.7019L42.8347 25.2444L47.1213 20.5109L43.6116 14.4334L37.3657 15.774L36.1522 14.9559C35.5559 14.5531 34.9322 14.1924 34.2857 13.8765L32.9725 13.2372L31.0097 7.15967H31.0063ZM27.5 17.4722C30.2351 17.4722 32.8581 18.5587 34.7921 20.4926C36.726 22.4266 37.8125 25.0496 37.8125 27.7847C37.8125 30.5197 36.726 33.1427 34.7921 35.0767C32.8581 37.0107 30.2351 38.0972 27.5 38.0972C24.765 38.0972 22.142 37.0107 20.208 35.0767C18.274 33.1427 17.1875 30.5197 17.1875 27.7847C17.1875 25.0496 18.274 22.4266 20.208 20.4926C22.142 18.5587 24.765 17.4722 27.5 17.4722ZM27.5 20.9097C25.6767 20.9097 23.928 21.634 22.6387 22.9233C21.3494 24.2126 20.625 25.9613 20.625 27.7847C20.625 29.608 21.3494 31.3567 22.6387 32.646C23.928 33.9353 25.6767 34.6597 27.5 34.6597C29.3234 34.6597 31.0721 33.9353 32.3614 32.646C33.6507 31.3567 34.375 29.608 34.375 27.7847C34.375 25.9613 33.6507 24.2126 32.3614 22.9233C31.0721 21.634 29.3234 20.9097 27.5 20.9097Z" fill="black"/>
</svg>
