<svg width="47" height="47" viewBox="0 0 47 47" fill="none" xmlns="http://www.w3.org/2000/svg">
<path d="M14.1 47C12.8075 47 11.701 46.5398 10.7806 45.6194C9.86021 44.699 9.4 43.5925 9.4 42.3C9.4 41.0075 9.86021 39.901 10.7806 38.9806C11.701 38.0602 12.8075 37.6 14.1 37.6C15.3925 37.6 16.499 38.0602 17.4194 38.9806C18.3398 39.901 18.8 41.0075 18.8 42.3C18.8 43.5925 18.3398 44.699 17.4194 45.6194C16.499 46.5398 15.3925 47 14.1 47ZM37.6 47C36.3075 47 35.201 46.5398 34.2806 45.6194C33.3602 44.699 32.9 43.5925 32.9 42.3C32.9 41.0075 33.3602 39.901 34.2806 38.9806C35.201 38.0602 36.3075 37.6 37.6 37.6C38.8925 37.6 39.999 38.0602 40.9194 38.9806C41.8398 39.901 42.3 41.0075 42.3 42.3C42.3 43.5925 41.8398 44.699 40.9194 45.6194C39.999 46.5398 38.8925 47 37.6 47ZM9.87 4.7H44.5325C45.4333 4.7 46.1187 5.10146 46.5887 5.90438C47.0587 6.70729 47.0783 7.52 46.6475 8.3425L38.305 23.3825C37.8742 24.1658 37.2965 24.7729 36.5719 25.2038C35.8473 25.6346 35.0542 25.85 34.1925 25.85H16.685L14.1 30.55H42.3V35.25H14.1C12.3375 35.25 11.0058 34.4765 10.105 32.9294C9.20417 31.3823 9.165 29.845 9.9875 28.3175L13.16 22.56L4.7 4.7H0V0H7.6375L9.87 4.7Z" fill="#FE9738"/>
</svg>
