<svg width="70" height="75" viewBox="0 0 70 75" fill="none" xmlns="http://www.w3.org/2000/svg">
<path d="M6.66667 75C4.83333 75 3.26389 74.2917 1.95833 72.875C0.652778 71.4583 0 69.7553 0 67.766V9.89378C0 7.90442 0.652778 6.20141 1.95833 4.78475C3.26389 3.36808 4.83333 2.65975 6.66667 2.65975H26.6667C27.6111 2.65975 28.4028 3.00638 29.0417 3.69964C29.6806 4.3929 30 5.25194 30 6.27676C30 7.30158 29.6806 8.16062 29.0417 8.85388C28.4028 9.54715 27.6111 9.89378 26.6667 9.89378H6.66667V67.766H43.3333V64.149C43.3333 63.1241 43.6528 62.2651 44.2917 61.5718C44.9306 60.8786 45.7222 60.532 46.6667 60.532C47.6111 60.532 48.4028 60.8786 49.0417 61.5718C49.6806 62.2651 50 63.1241 50 64.149V67.766C50 69.7553 49.3472 71.4583 48.0417 72.875C46.7361 74.2917 45.1667 75 43.3333 75H6.66667ZM16.6667 60.532C15.7222 60.532 14.9306 60.1853 14.2917 59.4921C13.6528 58.7988 13.3333 57.9398 13.3333 56.9149C13.3333 55.8901 13.6528 55.0311 14.2917 54.3378C14.9306 53.6446 15.7222 53.2979 16.6667 53.2979H33.3333C34.2778 53.2979 35.0694 53.6446 35.7083 54.3378C36.3472 55.0311 36.6667 55.8901 36.6667 56.9149C36.6667 57.9398 36.3472 58.7988 35.7083 59.4921C35.0694 60.1853 34.2778 60.532 33.3333 60.532H16.6667ZM16.6667 49.6809C15.7222 49.6809 14.9306 49.3343 14.2917 48.641C13.6528 47.9478 13.3333 47.0887 13.3333 46.0639C13.3333 45.0391 13.6528 44.18 14.2917 43.4868C14.9306 42.7935 15.7222 42.4469 16.6667 42.4469H26.6667C27.6111 42.4469 28.4028 42.7935 29.0417 43.4868C29.6806 44.18 30 45.0391 30 46.0639C30 47.0887 29.6806 47.9478 29.0417 48.641C28.4028 49.3343 27.6111 49.6809 26.6667 49.6809H16.6667ZM25 35.2129C23.6111 35.2129 22.4306 34.6854 21.4583 33.6304C20.4861 32.5755 20 31.2944 20 29.7873V22.5533C20 21.0462 20.4861 19.7652 21.4583 18.7102C22.4306 17.6553 23.6111 17.1278 25 17.1278H30L37.6667 8.80867C37.9444 8.50725 38.2917 8.25105 38.7083 8.04006C39.125 7.82906 39.5556 7.72357 40 7.72357C40.9444 7.72357 41.7361 8.08527 42.375 8.80867C43.0139 9.53207 43.3333 10.4062 43.3333 11.431V40.9097C43.3333 41.9345 43.0139 42.8086 42.375 43.532C41.7361 44.2554 40.9444 44.6171 40 44.6171C39.5556 44.6171 39.125 44.5116 38.7083 44.3006C38.2917 44.0896 37.9444 43.8334 37.6667 43.532L30 35.2129H25ZM56.6667 26.1703C56.6667 28.1597 56.3056 30.0586 55.5833 31.8671C54.8611 33.6756 53.8333 35.2731 52.5 36.6597C52.0556 37.1419 51.5278 37.2324 50.9167 36.9309C50.3056 36.6295 50 36.087 50 35.3033V17.0374C50 16.314 50.3056 15.7865 50.9167 15.4549C51.5278 15.1234 52.0556 15.1987 52.5 15.681C53.8333 17.0675 54.8611 18.665 55.5833 20.4735C56.3056 22.282 56.6667 24.181 56.6667 26.1703ZM63.3333 26.1703C63.3333 22.1916 62.4028 18.5143 60.5417 15.1384C58.6806 11.7626 56.1389 9.11009 52.9167 7.18102C52.0833 6.69875 51.5 5.99042 51.1667 5.05602C50.8333 4.12163 50.8333 3.2023 51.1667 2.29805C51.5 1.33351 52.0972 0.655324 52.9583 0.263481C53.8194 -0.128362 54.6389 -0.0831497 55.4167 0.399119C59.9167 2.93103 63.4722 6.48776 66.0833 11.0693C68.6944 15.6509 70 20.6845 70 26.1703C70 31.6561 68.6944 36.6898 66.0833 41.2714C63.4722 45.8529 59.9167 49.4096 55.4167 51.9415C54.6389 52.4238 53.8194 52.469 52.9583 52.0772C52.0972 51.6853 51.5 51.0071 51.1667 50.0426C50.8333 49.1384 50.8333 48.219 51.1667 47.2846C51.5 46.3503 52.0833 45.6419 52.9167 45.1596C56.1389 43.2306 58.6806 40.5781 60.5417 37.2022C62.4028 33.8263 63.3333 30.149 63.3333 26.1703Z" fill="white"/>
</svg>
