<svg width="20" height="21" viewBox="0 0 20 21" fill="none" xmlns="http://www.w3.org/2000/svg">
<path d="M11 10.3153V6.71533C11 6.432 10.9042 6.1945 10.7125 6.00283C10.5208 5.81117 10.2833 5.71533 10 5.71533C9.71667 5.71533 9.47917 5.81117 9.2875 6.00283C9.09583 6.1945 9 6.432 9 6.71533V10.6903C9 10.8237 9.025 10.9528 9.075 11.0778C9.125 11.2028 9.2 11.3153 9.3 11.4153L12.6 14.7153C12.7833 14.8987 13.0167 14.9903 13.3 14.9903C13.5833 14.9903 13.8167 14.8987 14 14.7153C14.1833 14.532 14.275 14.2987 14.275 14.0153C14.275 13.732 14.1833 13.4987 14 13.3153L11 10.3153ZM10 20.7153C8.61667 20.7153 7.31667 20.4528 6.1 19.9278C4.88333 19.4028 3.825 18.6903 2.925 17.7903C2.025 16.8903 1.3125 15.832 0.7875 14.6153C0.2625 13.3987 0 12.0987 0 10.7153C0 9.332 0.2625 8.032 0.7875 6.81533C1.3125 5.59867 2.025 4.54033 2.925 3.64033C3.825 2.74033 4.88333 2.02783 6.1 1.50283C7.31667 0.977832 8.61667 0.715332 10 0.715332C11.3833 0.715332 12.6833 0.977832 13.9 1.50283C15.1167 2.02783 16.175 2.74033 17.075 3.64033C17.975 4.54033 18.6875 5.59867 19.2125 6.81533C19.7375 8.032 20 9.332 20 10.7153C20 12.0987 19.7375 13.3987 19.2125 14.6153C18.6875 15.832 17.975 16.8903 17.075 17.7903C16.175 18.6903 15.1167 19.4028 13.9 19.9278C12.6833 20.4528 11.3833 20.7153 10 20.7153ZM10 18.7153C12.2167 18.7153 14.1042 17.9362 15.6625 16.3778C17.2208 14.8195 18 12.932 18 10.7153C18 8.49867 17.2208 6.61117 15.6625 5.05283C14.1042 3.4945 12.2167 2.71533 10 2.71533C7.78333 2.71533 5.89583 3.4945 4.3375 5.05283C2.77917 6.61117 2 8.49867 2 10.7153C2 12.932 2.77917 14.8195 4.3375 16.3778C5.89583 17.9362 7.78333 18.7153 10 18.7153Z" fill="white"/>
</svg>
