<svg width="28" height="30" viewBox="0 0 28 30" fill="none" xmlns="http://www.w3.org/2000/svg">
<path fill-rule="evenodd" clip-rule="evenodd" d="M8 3C8 1.34315 9.34315 0 11 0H17C18.6569 0 20 1.34315 20 3V6H24.4845C24.4938 5.99991 24.5031 5.99991 24.5124 6H26C26.8284 6 27.5 6.67157 27.5 7.5C27.5 8.32843 26.8284 9 26 9H25.8967L24.6952 25.8206C24.527 28.1755 22.5675 30 20.2066 30H7.79336C5.43248 30 3.473 28.1755 3.30479 25.8206L2.10332 9H2C1.17157 9 0.5 8.32843 0.5 7.5C0.5 6.67157 1.17157 6 2 6H3.48762C3.49692 5.99991 3.50621 5.99991 3.51548 6H8V3ZM5.11096 9L6.29717 25.6069C6.35324 26.3918 7.0064 27 7.79336 27H20.2066C20.9936 27 21.6468 26.3918 21.7028 25.6069L22.889 9H5.11096ZM17 6H11V3H17V6ZM11 12C11.8284 12 12.5 12.6716 12.5 13.5V22.5C12.5 23.3284 11.8284 24 11 24C10.1716 24 9.5 23.3284 9.5 22.5V13.5C9.5 12.6716 10.1716 12 11 12ZM17 12C17.8284 12 18.5 12.6716 18.5 13.5V22.5C18.5 23.3284 17.8284 24 17 24C16.1716 24 15.5 23.3284 15.5 22.5V13.5C15.5 12.6716 16.1716 12 17 12Z" fill="black"/>
</svg>
