<svg width="35" height="35" viewBox="0 0 35 35" fill="none" xmlns="http://www.w3.org/2000/svg">
<path d="M17.5 35C15.0792 35 12.8042 34.5406 10.675 33.6219C8.54583 32.7031 6.69375 31.4562 5.11875 29.8812C3.54375 28.3062 2.29687 26.4542 1.37812 24.325C0.459375 22.1958 0 19.9208 0 17.5C0 15.0792 0.459375 12.8042 1.37812 10.675C2.29687 8.54583 3.54375 6.69375 5.11875 5.11875C6.69375 3.54375 8.54583 2.29687 10.675 1.37812C12.8042 0.459375 15.0792 0 17.5 0C19.3958 0 21.1896 0.277083 22.8812 0.83125C24.5729 1.38542 26.1333 2.15833 27.5625 3.15L25.025 5.73125C23.9167 5.03125 22.7354 4.48437 21.4812 4.09062C20.2271 3.69687 18.9 3.5 17.5 3.5C13.6208 3.5 10.3177 4.86354 7.59062 7.59062C4.86354 10.3177 3.5 13.6208 3.5 17.5C3.5 21.3792 4.86354 24.6823 7.59062 27.4094C10.3177 30.1365 13.6208 31.5 17.5 31.5C21.3792 31.5 24.6823 30.1365 27.4094 27.4094C30.1365 24.6823 31.5 21.3792 31.5 17.5C31.5 16.975 31.4708 16.45 31.4125 15.925C31.3542 15.4 31.2667 14.8896 31.15 14.3937L33.9937 11.55C34.3146 12.4833 34.5625 13.4458 34.7375 14.4375C34.9125 15.4292 35 16.45 35 17.5C35 19.9208 34.5406 22.1958 33.6219 24.325C32.7031 26.4542 31.4562 28.3062 29.8812 29.8812C28.3062 31.4562 26.4542 32.7031 24.325 33.6219C22.1958 34.5406 19.9208 35 17.5 35ZM15.05 25.55L7.6125 18.1125L10.0625 15.6625L15.05 20.65L32.55 3.10625L35 5.55625L15.05 25.55Z" fill="white"/>
</svg>
