<svg width="32" height="32" viewBox="0 0 32 32" fill="none" xmlns="http://www.w3.org/2000/svg">
<path d="M13.5111 23.4667L26.0444 10.9333L23.5556 8.44444L13.5111 18.4889L8.44444 13.4222L5.95556 15.9111L13.5111 23.4667ZM3.55556 32C2.57778 32 1.74074 31.6519 1.04444 30.9556C0.348148 30.2593 0 29.4222 0 28.4444V3.55556C0 2.57778 0.348148 1.74074 1.04444 1.04444C1.74074 0.348148 2.57778 0 3.55556 0H28.4444C29.4222 0 30.2593 0.348148 30.9556 1.04444C31.6519 1.74074 32 2.57778 32 3.55556V28.4444C32 29.4222 31.6519 30.2593 30.9556 30.9556C30.2593 31.6519 29.4222 32 28.4444 32H3.55556Z" fill="#FE9738"/>
</svg>
