<svg width="288" height="288" viewBox="0 0 288 288" fill="none" xmlns="http://www.w3.org/2000/svg">
<g filter="url(#filter0_d_563_1130)">
<path fill-rule="evenodd" clip-rule="evenodd" d="M144 45C93.1898 45 52 86.1898 52 137C52 187.81 93.1898 229 144 229C194.81 229 236 187.81 236 137C236 86.1898 194.81 45 144 45ZM29 137C29 73.4873 80.4873 22 144 22C207.513 22 259 73.4873 259 137C259 200.513 207.513 252 144 252C80.4873 252 29 200.513 29 137ZM144 91C150.351 91 155.5 96.1487 155.5 102.5V125.5H178.5C184.851 125.5 190 130.649 190 137C190 143.351 184.851 148.5 178.5 148.5H155.5V171.5C155.5 177.851 150.351 183 144 183C137.649 183 132.5 177.851 132.5 171.5V148.5H109.5C103.149 148.5 98 143.351 98 137C98 130.649 103.149 125.5 109.5 125.5H132.5V102.5C132.5 96.1487 137.649 91 144 91Z" fill="#FE9738"/>
</g>
<defs>
<filter id="filter0_d_563_1130" x="0" y="0" width="288" height="288" filterUnits="userSpaceOnUse" color-interpolation-filters="sRGB">
<feFlood flood-opacity="0" result="BackgroundImageFix"/>
<feColorMatrix in="SourceAlpha" type="matrix" values="0 0 0 0 0 0 0 0 0 0 0 0 0 0 0 0 0 0 127 0" result="hardAlpha"/>
<feOffset dy="7"/>
<feGaussianBlur stdDeviation="14.5"/>
<feColorMatrix type="matrix" values="0 0 0 0 0.392157 0 0 0 0 0.392157 0 0 0 0 0.435294 0 0 0 0.2 0"/>
<feBlend mode="normal" in2="BackgroundImageFix" result="effect1_dropShadow_563_1130"/>
<feBlend mode="normal" in="SourceGraphic" in2="effect1_dropShadow_563_1130" result="shape"/>
</filter>
</defs>
</svg>
